<?xml version="1.0" standalone="no"?>
<!DOCTYPE svg PUBLIC "-//W3C//DTD SVG 20010904//EN"
 "http://www.w3.org/TR/2001/REC-SVG-20010904/DTD/svg10.dtd">
<svg version="1.0" xmlns="http://www.w3.org/2000/svg"
 width="700.000000pt" height="700.000000pt" viewBox="0 0 700.000000 700.000000"
 preserveAspectRatio="xMidYMid meet">
<metadata>
Created by potrace 1.14, written by Peter Selinger 2001-2017
</metadata>
<g transform="translate(0.000000,700.000000) scale(0.100000,-0.100000)"
fill="#000000" stroke="none">
<path d="M5156 6816 c-17 -18 -42 -55 -56 -82 -23 -46 -111 -205 -166 -300
l-23 -41 -93 47 c-210 105 -543 230 -678 254 -14 2 -32 7 -40 10 -8 3 -26 8
-40 10 -14 3 -50 10 -80 16 -30 6 -68 13 -85 15 -16 3 -57 9 -90 15 -231 37
-625 44 -855 15 -108 -14 -180 -25 -210 -31 -14 -3 -36 -8 -50 -10 -14 -2 -36
-7 -50 -10 -14 -3 -36 -8 -50 -10 -50 -9 -217 -56 -320 -91 -509 -169 -972
-463 -1345 -853 -87 -91 -116 -123 -154 -170 -20 -25 -38 -47 -41 -50 -30 -30
-155 -207 -230 -326 -59 -92 -201 -361 -227 -429 -6 -16 -32 -84 -58 -150 -92
-237 -139 -424 -189 -755 -28 -180 -28 -690 -1 -825 2 -11 7 -40 10 -65 6 -48
10 -73 26 -160 16 -87 18 -95 49 -214 74 -288 198 -586 353 -846 57 -95 138
-220 174 -265 13 -16 27 -34 31 -40 237 -318 546 -602 897 -822 118 -74 120
-75 295 -163 344 -172 773 -294 1150 -328 199 -17 590 -8 772 18 40 6 87 13
103 15 174 24 557 136 723 211 318 145 513 260 752 447 406 318 772 786 974
1247 21 47 42 94 47 105 54 120 145 413 178 575 29 144 28 139 36 205 4 33 9
69 11 80 25 130 24 794 -2 836 -1 3 -6 28 -9 55 -4 27 -8 60 -11 74 -2 14 -7
41 -10 60 -10 62 -34 162 -65 274 -17 59 -27 112 -22 116 7 6 134 48 168 56
19 4 200 62 225 72 26 10 34 12 50 12 19 0 70 60 70 83 0 13 -18 71 -39 128
-209 554 -514 1019 -941 1435 -186 181 -390 344 -603 479 -187 120 -210 126
-261 71z m-1651 -2188 c18 -5 84 -17 102 -20 36 -5 191 -66 259 -102 318 -169
544 -476 608 -825 18 -101 18 -317 0 -416 -63 -335 -267 -628 -559 -802 -277
-166 -654 -204 -965 -98 -139 47 -296 137 -390 222 -19 17 -44 40 -55 50 -41
36 -124 140 -168 209 -121 188 -181 396 -180 629 0 131 25 286 58 370 45 114
70 169 95 209 17 26 30 51 30 56 0 4 3 10 8 12 4 2 21 23 37 47 17 25 66 81
110 125 131 131 291 231 459 286 90 29 114 35 191 46 22 4 42 8 44 10 6 5 291
-2 316 -8z"/>
</g>
</svg>
