<svg xmlns="http://www.w3.org/2000/svg" fill="none" viewBox="0 0 40 40">
	<defs />
	<path fill="currentColor" d="M6.688 20.468l5.748 2.143 2.24 7.209c.098.487.682.584 1.072.292l3.215-2.63c.292-.293.78-.293 1.169 0l5.747 4.189c.39.292.975.097 1.072-.39l4.287-20.458c.097-.487-.39-.974-.877-.779L6.688 19.201c-.584.195-.584 1.072 0 1.267zm7.696 1.071l11.3-6.916c.195-.098.39.194.195.292l-9.254 8.67c-.292.292-.585.682-.585 1.169l-.292 2.338c0 .292-.487.39-.584 0l-1.17-4.286c-.292-.488-.097-1.072.39-1.267z"/>
</svg>